<svg xmlns="http://www.w3.org/2000/svg" xmlns:xlink="http://www.w3.org/1999/xlink" width="1200" height="620" viewBox="0 0 1200 620" role="img" aria-labelledby="title desc">
<title id="title">Joban's player profile</title>
<desc id="desc">A game-inspired profile panel featuring Joban's original pixel character in the center, role and focus on the left, and player stats on the right.</desc>
<defs>
  <linearGradient id="bg" x1="0" x2="1" y1="0" y2="1"><stop stop-color="#111720"/><stop offset="1" stop-color="#080b10"/></linearGradient>
  <linearGradient id="glow" x1="0" x2="1"><stop stop-color="#e08b3e" stop-opacity=".32"/><stop offset="1" stop-color="#4fa3d1" stop-opacity=".05"/></linearGradient>
  <filter id="shadow"><feDropShadow dx="0" dy="10" stdDeviation="12" flood-color="#000" flood-opacity=".75"/></filter>
</defs>
<rect width="1200" height="620" rx="8" fill="url(#bg)" stroke="#303846" stroke-width="2"/>
<rect x="24" y="24" width="1152" height="572" rx="4" fill="none" stroke="#1e2632"/>
<path d="M400 24V596M800 24V596" stroke="#303846" stroke-width="2"/>
<rect x="402" y="26" width="396" height="568" fill="url(#glow)" opacity=".55"/>
<g font-family="monospace">
  <text x="58" y="72" fill="#a9b8c8" font-size="16" font-weight="700">PLAYER PROFILE // JOBAN.EXE</text>
  <text x="58" y="126" fill="#f0a24a" font-size="28" font-weight="700">ROLE</text>
  <rect x="58" y="145" width="232" height="34" rx="5" fill="#1c2530"/>
  <text x="72" y="168" fill="#e9eef5" font-size="17">Computer Science student</text>
  <text x="58" y="210" fill="#c9d3df" font-size="17">Building useful things.</text>
  <text x="58" y="237" fill="#c9d3df" font-size="17">Not collecting tutorials.</text>
  <text x="58" y="302" fill="#6db7d8" font-size="28" font-weight="700">FOCUS</text>
  <text x="58" y="338" fill="#d6dde7" font-size="17">Software · AI/ML · Web</text>
  <text x="58" y="365" fill="#d6dde7" font-size="17">Experiments that ship.</text>
  <text x="58" y="430" fill="#f0a24a" font-size="28" font-weight="700">CURRENT QUEST</text>
  <text x="58" y="466" fill="#d6dde7" font-size="17">Stronger fundamentals.</text>
  <text x="58" y="493" fill="#d6dde7" font-size="17">Better projects. Real execution.</text>
  <text x="58" y="556" fill="#75c76b" font-size="15" font-weight="700">LEARN → EXPERIMENT → BUILD → SHIP</text>
</g>
<g filter="url(#shadow)">
  <rect x="432" y="44" width="336" height="510" rx="12" fill="#0b0f15" stroke="#27313d" stroke-width="2"/>
  <rect x="448" y="60" width="304" height="478" rx="8" fill="#0a0d12"/>
  <image x="474" y="76" width="252" height="430" preserveAspectRatio="xMidYMid meet" image-rendering="pixelated" xlink:href="https://raw.githubusercontent.com/Joban33/Joban33/main/assets/player-exact.webp"/>
  <path d="M476 514H724" stroke="#e08b3e" stroke-opacity=".55"/>
  <text x="600" y="530" text-anchor="middle" fill="#f0a24a" font-family="monospace" font-size="15" font-weight="700">THE BUILDER // PLAYER 01</text>
</g>
<g font-family="monospace">
  <text x="838" y="72" fill="#a9b8c8" font-size="16" font-weight="700">PLAYER STATS</text>
  <text x="838" y="130" fill="#f3f5f8" font-size="18">♥ PASSION</text><rect x="838" y="146" width="286" height="16" rx="3" fill="#202833"/><rect x="838" y="146" width="244" height="16" rx="3" fill="#e08b3e"/>
  <text x="838" y="210" fill="#f3f5f8" font-size="18">◆ CONSISTENCY</text><rect x="838" y="226" width="286" height="16" rx="3" fill="#202833"/><rect x="838" y="226" width="220" height="16" rx="3" fill="#6fc35c"/>
  <text x="838" y="290" fill="#f3f5f8" font-size="18">★ LEARNING</text><rect x="838" y="306" width="286" height="16" rx="3" fill="#202833"/><rect x="838" y="306" width="232" height="16" rx="3" fill="#5b9de3"/>
  <text x="838" y="370" fill="#f3f5f8" font-size="18">● EXECUTION</text><rect x="838" y="386" width="286" height="16" rx="3" fill="#202833"/><rect x="838" y="386" width="174" height="16" rx="3" fill="#9568d9"/>
  <path d="M838 444H1124" stroke="#303846"/>
  <text x="838" y="484" fill="#a9b8c8" font-size="16">LEVEL</text><text x="1080" y="484" fill="#f0a24a" font-size="18" text-anchor="end">02</text>
  <text x="838" y="522" fill="#a9b8c8" font-size="16">XP</text><text x="1124" y="522" fill="#f0a24a" font-size="18" text-anchor="end">760 / 1000</text>
  <text x="838" y="564" fill="#66778b" font-size="13">NO FAKE LEVELS. KEEP BUILDING.</text>
</g>
</svg>