<svg xmlns="http://www.w3.org/2000/svg" width="1200" height="390" viewBox="0 0 1200 390" role="img" aria-label="Animated technology constellation">
<defs>
 <linearGradient id="g"><stop stop-color="#00f5ff"/><stop offset=".5" stop-color="#7c3aed"/><stop offset="1" stop-color="#ff2d75"/></linearGradient>
 <filter id="glow"><feGaussianBlur stdDeviation="4" result="b"/><feMerge><feMergeNode in="b"/><feMergeNode in="SourceGraphic"/></feMerge></filter>
 <pattern id="grid" width="36" height="36" patternUnits="userSpaceOnUse"><path d="M36 0H0V36" fill="none" stroke="#fff" stroke-opacity=".035"/></pattern>
</defs>
<rect width="1200" height="390" rx="28" fill="#060609"/><rect width="1200" height="390" rx="28" fill="url(#grid)"/>
<text x="48" y="48" fill="#777783" font-family="monospace" font-size="11" letter-spacing="4">TECH STACK / NETWORK MAP</text>
<text x="48" y="82" fill="#fff" font-family="Arial,sans-serif" font-size="28" font-weight="800">TOOLS THAT POWER THE BUILD.</text>
<g stroke="url(#g)" stroke-width="1.5" opacity=".45"><path d="M600 205L180 145M600 205L320 295M600 205L460 115M600 205L780 115M600 205L880 285M600 205L1030 155M600 205L760 300"/></g>
<g fill="#0b0b10" stroke="#fff" stroke-opacity=".12"><rect x="125" y="120" width="150" height="50" rx="14"/><rect x="245" y="270" width="150" height="50" rx="14"/><rect x="385" y="90" width="150" height="50" rx="14"/><rect x="705" y="90" width="150" height="50" rx="14"/><rect x="805" y="260" width="150" height="50" rx="14"/><rect x="955" y="130" width="150" height="50" rx="14"/><rect x="685" y="275" width="150" height="50" rx="14"/></g>
<g font-family="monospace" font-size="12" text-anchor="middle"><text x="200" y="150" fill="#00f5ff">PYTHON</text><text x="320" y="300" fill="#fff">C++</text><text x="460" y="120" fill="#00f5ff">JAVASCRIPT</text><text x="780" y="120" fill="#7c3aed">REACT</text><text x="880" y="290" fill="#ff2d75">NEXT.JS</text><text x="1030" y="160" fill="#fff">TYPESCRIPT</text><text x="760" y="305" fill="#00f5ff">GIT</text></g>
<g>
 <circle cx="600" cy="205" r="58" fill="#08080c" stroke="url(#g)" stroke-width="2"/>
 <circle cx="600" cy="205" r="78" fill="none" stroke="#fff" stroke-opacity=".07" stroke-dasharray="5 10"><animateTransform attributeName="transform" type="rotate" from="0 600 205" to="360 600 205" dur="10s" repeatCount="indefinite"/></circle>
 <text x="600" y="201" text-anchor="middle" fill="#fff" font-family="monospace" font-size="13" letter-spacing="3">JOBAN</text>
 <text x="600" y="222" text-anchor="middle" fill="#777783" font-family="monospace" font-size="9">CORE</text>
</g>
<text x="600" y="365" text-anchor="middle" fill="#555560" font-family="monospace" font-size="9" letter-spacing="3">AI / ML • SOFTWARE • WEB • SYSTEMS</text>
</svg>